<?xml version="1.0" standalone="yes"?> <svg width=872 height=523 xmlns=http://www.w3.org/2000/svg xmlns:xlink=http://www.w3.org/1999/xlink><path style=fill:#fff;stroke:none d="M0 0L0 523L872 523L872 0L0 0z"><path style=fill:#000;stroke:none d="M300 105L306 110L313.795 136L314.446 145.137L307 145L312 148L309 150L312 151C304.09 158.419 284.537 161.138 274 163.375C253.609 167.704 234.653 179.223 216 187.87C207.801 191.67 196.39 196.66 192 205L195 204L179 216L178 220L174 219L175 223L171 222C153.651 242.056 135.527 261.126 123.535 285.039C119.24 293.604 114.206 301.063 114 311C124.865 311.176 138.877 329.468 147.325 336.086C175.158 357.887 204.746 385.32 238 398.385C261.785 407.73 288.629 412.466 314 414.515L349 415.315C384.243 419.503 420.473 422.516 456 420.961L494 416.17C534.579 412.243 575.659 405.162 612.985 387.204L632.985 372.948C658.37 357.936 685.739 340.42 703 316L698 317L700 305L672.96 339.87L643 362C630.357 360.345 618.01 379.582 606 383.91C569.192 397.173 532.689 410.181 493 411L507.482 398.829C523.368 380.682 536.214 358.34 546.948 337.039C553.172 324.688 561.196 311.138 562.66 297C565.706 267.58 553.017 238.698 540.655 212.999L520.255 178.286L503 164C527.175 168.109 550.286 177.089 573 185.958L629 212.29L667.907 233.039C685.371 246.525 702.234 267.05 715 285C709.983 287.775 704.596 294.467 703 300C707.638 297.865 721.364 289.688 721.364 284.054L714.093 276.192L699.075 257.3L671.96 229.289L621 202.221C611.559 197.072 596.056 183.949 585 186L561 176.064C534.831 164.772 505.747 159.246 478 153.116C469.106 151.151 453.345 151.866 447 145C423.666 150.41 397.734 143.599 373.996 144.018L343 145.272L319 149C323.189 134.695 309.431 120.976 308 107C313.955 105.942 322.929 104.716 324 98L307 101C305.331 92.1429 296.792 72.2952 312 69.9776L320 71L320 76C326.767 71.6133 320.173 66.5948 315 65.2006C309.819 63.8043 303.947 66.8596 300.894 71.1852C293.835 81.1838 307.229 97.1093 300 105M371 79C372.318 86.8972 396.279 85.0603 398 77L371 79M334 78L335 84C338.263 81.6236 337.798 79.2527 334 78M506 79L506.289 105L508.17 113.079L515.108 104.242C521.268 101.854 521.992 110.416 525 113L524 118L514 121C525.746 125.78 530.558 110.351 524.713 102.225C521.53 97.799 515.891 98.0135 511 98C510.999 91.9723 512.116 82.2063 506 79z"><path style=fill:#fff;stroke:none d="M373 80L373 82L375 82L373 80z"><path style=fill:#000;stroke:none d="M265 92L290 86C285.593 77.1133 268.592 85.2814 265 92M563 86L567 85L566 89L571 89C576.325 97.2378 592.571 101.779 602 102L602 97L574 86.7423C570.187 84.7967 566.053 81.752 563 86M481 100C477.184 96.8947 471.166 89.1168 468 97L477 99L478 113L490 96L490.792 113.682C493.374 119.118 501.175 114.391 503 111L494 111L493.566 94.1481C489.717 87.1331 482.351 95.5567 481 100M436 98L441 98C439.228 95.3185 437.772 95.3185 436 98M451 96L453.311 104.87C450.529 116.89 440.036 112.331 440 102C428.541 105.478 439.02 120.344 448.981 117.427C455.973 115.379 460.862 94.559 451 96M357 98L356 102C347.022 100.662 347.042 115.601 350.893 120.853C355.355 126.938 364.619 125.131 371 125L372 118C364.685 119.16 349.7 122.238 353.448 108.055L360 98L357 98M364 99L364 101L366 101L366 99L364 99M466 99L464 117L468 117L468 99L466 99M380 100L382 102C378.697 110.68 376.266 115.648 382 124L387 118C381.151 114.583 383 105.948 383 100L380 100M538 106C542.253 105.501 556.081 106.947 556.647 112.859L554.707 125.985C556.411 131.047 561.002 132.698 564 128C558.349 125.035 559.32 119.541 558 114L570 107L570 123C566.526 123.577 565.577 124.526 565 128L572 126L571 134C575.654 135.066 579.409 135.036 581 130C568.251 133.161 577.857 115.101 575.5 109.028C573.849 104.773 566.111 102.818 565 108C560.074 104.725 545.874 98.5622 540.054 100.756C534.793 102.739 528.117 117.415 532.023 122.338C535.747 127.031 537.994 108.158 538 106M278 104L280 109C283.862 108.709 285.782 109.176 287 113L275 116L277 109C267.303 109.74 267.338 124.98 271.442 131.815C275.372 138.36 285.622 138.3 292 136.137C296.689 134.547 300.175 133.404 300 128L280.174 131.421C277.059 130.372 272.887 125.817 275.647 122.563L289.142 117.411C296.977 108.777 285.837 102.2 278 104M331 105L333.688 121.556C336.321 125.906 340.958 127.076 343 122C335.543 117.454 339.892 104.317 331 105M244 150L240.193 123C241.478 112.834 248.856 116.037 252 123L256 123C250.718 132.23 254.747 143.724 265 147L267 141C250.882 139.755 263.612 109.756 246.001 110.233C231.044 110.638 232.418 148.073 244 150M597 110L596 128C587.886 130.615 587.345 144.304 596.867 140.924L601.979 131.184L613 123L615.31 127.189C623.06 140.849 623.601 119.699 612.985 118.461L600 124L602 111L597 110M234 114L234 116L236 116L236 114L234 114M503 114L502 117L511 122L505 114L503 114M204 147C201.301 158.776 215.806 161.82 223.999 157.506L230.248 150.322L216.003 153.002C209.568 152.533 207.714 146.222 206 141C211.841 140.83 218.168 138.861 221.891 134.065C226.055 128.701 224.282 120.222 216.961 118.473C202.931 115.12 193.414 139.049 204 147M187 121L184 152L162.455 139.294C160.427 137.999 156.273 134.462 154.086 137.614C151.632 141.153 157.72 144.19 160.001 145.373C170.053 150.588 180.705 158.195 185 169L187 169L191 166L191.799 131C192.072 126.122 192.587 121.932 187 121z"><path style=fill:#fff;stroke:none d="M207 123L208 126C202.964 127.807 203.689 132.42 204 137L208 139L217.949 131.687C224.319 123.452 211.457 122.916 207 123z"><path style=fill:#000;stroke:none d="M629 126L630 131L629 126M626 129L623 136C627.396 135.299 630.407 132.227 626 129M639 131C638.238 135.184 637.838 137.892 641 141L639 131M622 139L622.434 150.442C628.174 158.346 638.147 152.455 640 145C631.304 145.983 624.978 152.546 626 139L622 139M651 149L657 147L656 162L660 163C663.046 154.36 670.297 151.758 679 153L674 171C677.666 171.569 679.735 171.777 681 168L677 170C679.875 162.772 689.334 143.48 672 148.194L663 151C661.077 143.969 652.648 138.814 651 149M642 161C646.787 158.433 648.651 153.254 649 148C642.97 149.698 642.062 155.4 642 161z"><path style=fill:#fff;stroke:none d="M212 197L181.435 219.425C164.925 234.817 151.584 254.932 138.138 273C131.893 281.391 120.22 293.284 119 304L122 302L120 306L123 311C131.031 311.343 143.226 325.345 149 331L152 329C154.095 335.38 158.921 337.303 164.004 341.12L189.907 361.424C205.322 374.484 225.802 388.061 245 395.123C291.369 412.181 345.408 410.197 394 414L358 399.862L337.831 383.536C329.809 376.186 322.761 355.052 313 352L317 366L306.36 339C299.534 314.056 297.052 281.065 305 256L302 255L315 218L312 219C321.514 206.015 331.373 188.734 344.051 178.684L374.015 158.354L387 149C345.657 149 304.721 156.063 266 171.205L228.13 186.82C221.642 190.634 221.246 198.254 212 197M391 151L384 157L403 153L403 151L391 151M377 170L385 163C369.987 164.909 356.327 176.245 346.17 186.961C328.786 205.3 316.766 222.706 312 248L315 243L311.005 263C310.674 282.802 314.261 302.182 323 320C312.156 317.646 313.234 310.635 310 302C306.799 307.096 308.561 317.339 310.093 323C314.681 339.947 321.933 356.05 332.526 370.09C336.88 375.86 341.09 383.378 349 384C351.173 394.217 363.587 396.634 372 398.927L419 414L402.86 348C401.967 341.994 395.399 329.547 402 325L401 300L402 306C407.369 294.823 394.792 278.017 404 269C401.666 260.086 404.44 238.914 411 232L414.867 210.83L439 153C415.007 151.122 398.553 162.027 377 170M452 155C452.212 165.207 453.231 182.011 458 191L463 184L459 196L461 199L460.718 238C461.25 243.003 460.277 247.103 465 250C461.385 255.568 455.547 269.168 463 274C457.277 286.907 459.169 304.013 457.857 318L451 360L448 358L445 372L446 362C439.859 365.875 443.282 377.44 443 384L441 384L443 374L439 384C434.994 384.496 435.586 388.57 436 392L440 387L433 413L437 411C438.055 415.921 445.011 413.75 449 413.611C462.207 413.153 474.187 408.433 485.222 401.194C505.491 387.9 521.608 373.047 534.5 352L543.222 331.028L555 301L555.333 288C558.036 270.309 549.363 255.461 544.333 239C535.788 211.035 523.159 179.188 495 165.5L471 158.667L452 155M442 160L440 167L446 165L444 160L442 160M438 174C429.799 182.993 425.595 200.152 424 212C429.782 206.686 440.883 181.461 438 174z"><path style=fill:#000;stroke:none d="M370.667 175.333L371.333 175.667L370.667 175.333z"><path style=fill:#fff;stroke:none d="M446 181L440 195C444.73 192.13 447.963 186.363 449 181L446 181z"><path style=fill:#000;stroke:none d="M360 182L352 193C356.584 191.637 360.571 186.445 362 182L360 182M225.667 191.333L226.333 191.667L225.667 191.333z"><path style=fill:#fff;stroke:none d="M445 192L444 193L439 209C445.929 205.559 449.231 199.621 447 192L445 192z"><path style=fill:#000;stroke:none d="M348 194L348 196L351 196L351 194L348 194z"><path style=fill:#fff;stroke:none d="M451 197L449 202L452 201L450 213L447 211L440 226C450.97 215.771 453.12 211.481 453 197L451 197z"><path style=fill:#000;stroke:none d="M345 198L343 202L347 198L345 198M341 202L335 210C337.568 208.318 342.62 205.419 341 202M331 216L335 211L331 216z"><path style=fill:#fff;stroke:none d="M438 212L438 214L440 214L440 212L438 212z"><path style=fill:#000;stroke:none d="M329 216C323.951 223.328 315.851 233.694 317 243C320.584 237.892 330.505 221.732 329 216z"><path style=fill:#fff;stroke:none d="M438 217L437 225L438 217M453 218L451 226C445.085 227.675 441.487 233.22 440 239L444 240C447.632 232.999 456.491 226.943 453 218M435 219L434 223L435 219z"><path style=fill:#000;stroke:none d="M443.333 219.667L443.667 220.333L443.333 219.667z"><path style=fill:#fff;stroke:none d="M421 222L417 234L423 225L421 222M431 224C424.453 228.11 422.083 235.508 422 243L425 237C430.897 236.059 433.042 229.338 431 224M436 227L436 231L438 231L438 227L436 227M456 235L451 256C460.356 254.486 458.404 241.823 456 235M447 239L445 248L447 239M429 240L430 243L426 244L427 247L424 252L422 258L426 253C431.424 251.958 433.669 243.34 429 240M437 243L436 247L439 243L437 243M449 247L443 253L442 265C448.098 263.154 451.4 252.728 449 247M437 249C435.915 252.69 432.59 258.841 438 260L439 249L437 249M413 250L407 262L412 262L415 250L413 250M419 256L419 259L419 256M426 260L423 280L425 280L431 260L429 262L426 260M419.333 261.667L419.667 262.333L419.333 261.667M456 262L454 277C458.93 273.893 457.999 267.233 458 262L456 262M414 264L413 275L416 264L414 264M306.333 266.667L306.667 267.333L306.333 266.667M435 266L435 274L438 266L435 266z"><path style=fill:#000;stroke:none d="M414.333 267.667L414.667 268.333L414.333 267.667z"><path style=fill:#fff;stroke:none d="M443 268L442 275L445 268L443 268M452 272L452 276L452 272M418.333 273.667L418.667 274.333L418.333 273.667M450.333 273.667L450.667 274.333L450.333 273.667M305 274L304 294C309.353 290.218 306.652 279.863 307 274L305 274M407 274L409 278L407 274M445 278L442 289C445.306 286.517 446.496 281.842 445 278M450.333 278.667L450.667 279.333L450.333 278.667M418 280L418 284L420 284L420 280L418 280M428 280L423 288L427 287L426 284C428.509 283.666 428.88 282.368 428 280M435 280L434 291L437 280L435 280M457 284L456 292L458 292L457 284z"><path style=fill:#000;stroke:none d="M722 288L726 285L722 288M399.333 288.667L399.667 289.333L399.333 288.667z"><path style=fill:#fff;stroke:none d="M424 289L424 300C429.386 297.36 429.981 293.62 430 288L424 289M411 289L409 299C411.949 296.112 412.613 292.854 411 289z"><path style=fill:#000;stroke:none d="M720 289L722 294L718 293L704 314C713.286 307.996 720.978 299.371 725 289L720 289M398.333 292.667L398.667 293.333L398.333 292.667z"><path style=fill:#fff;stroke:none d="M419.333 292.667L419.667 293.333L419.333 292.667z"><path style=fill:#000;stroke:none d="M696 293L695 294L695 296L698 293L696 293z"><path style=fill:#fff;stroke:none d="M434 300L438 294L434 300M304 298L307 295L304 298M419 296L420 308L422 308L419 296M448 296L447 302L450 296L448 296M433.667 301.333L434.333 301.667L433.667 301.333M455 302L454 310C449.436 311.849 447.37 314.01 447 319L451 313L451 320C456.65 317.041 457.273 307.417 455 302M434 304L433 311L436 304L434 304M117.667 305.333L118.333 305.667L117.667 305.333M427 308L430 305L427 308M440.333 310.667L440.667 311.333L440.333 310.667M124 312L123 314L125 314L124 312M410 313L410 324L412 324C412.509 319.882 413.657 315.787 410 313M428 314L427 319L428 314z"><path style=fill:#000;stroke:none d="M399.333 322.667L399.667 323.333L399.333 322.667z"><path style=fill:#fff;stroke:none d="M422.333 324.667L422.667 325.333L422.333 324.667M419 326L417 333C420.287 331.142 421.33 329.804 421 326L419 326M403 328L403 332L403 328M451 330L445 348L452 342L453 330L451 330M436 331C434.832 338.905 427.507 348.103 432 356L433 353L434 355L439 340L436 339L438 331L436 331M404 340L404 343L404 340M411 347L412 353C413.798 350.404 413.597 348.852 411 347M423 350C422.146 352.697 422.149 353.386 425 354L425 350L423 350M423 367L428 357L427 356C421.953 358.553 422.618 361.929 423 367M408 359L410 374L417 391C420.633 382.092 413.705 367.648 411 359L408 359M433 359L431 366L435 359L433 359z"><path style=fill:#000;stroke:none d="M449 361L448 367L449 361z"><path style=fill:#fff;stroke:none d="M432 367L431 376L434 375L434 367L432 367z"><path style=fill:#000;stroke:none d="M448 368L447 373L448 368M445 378L444 387L445 378M665 385C665.261 389.15 665.151 395.923 671 393L684 404L675 405L675 410L687.218 406.272C691.918 400.95 683.524 395.74 679 396C671.764 387.009 669.745 392.016 677 381L665 385M437.333 387.667L437.667 388.333L437.333 387.667M178 393C177.369 399.369 173.64 396.334 169.684 399.042L161 411C169.044 407.079 180.569 401.771 182 392L178 393M647 398L654 395C650.13 393.632 646.145 392.437 647 398z"><path style=fill:#fff;stroke:none d="M420 395L421 408L420 395z"><path style=fill:#000;stroke:none d="M657 398C663.002 407.109 656.067 420.191 645 415C645.258 422.743 652.422 422.898 657.867 418.427C661.757 415.233 662.945 409.809 662.981 405C663.014 400.431 661.938 397.279 657 398z"><path style=fill:#fff;stroke:none d="M476 412L490 408L489 406L498 399C491.05 401.318 480.086 405.743 476 412M427 401L426 414L431 414L433 402L427 401z"><path style=fill:#000;stroke:none d="M177 411L180.653 422.297C187.143 428.557 197.169 423.632 199 416L185 422L182 420L187 403L177 411M198 405L196 416L202 408L198 405M603 405L600 417C604.521 413.793 604.325 409.261 611 410L611 429L609 429L603 421L608 435L603 440C607.042 440.614 617.683 438.954 619 435L614.494 431.902L616.451 423L612 409L603 405M670 407L671 410L673 410L674 406L670 407M216 408L216 410L219 410L219 408L216 408M634 409L634 412L636 412L636 409L634 409M162 415L166 411L162 415M620 413L628 417L627 412L620 413M206 419C208.159 422.054 210.55 421.94 214 421L214 419L213 418L206 419M235 419L238.798 426.923L226 429L231 433C218.582 441.028 233.274 449.725 236 442C232.239 442.123 230.726 441.353 229 438L246 435L243 432C245.573 424.728 241.762 421.496 235 419M556 419L555.243 428.502C551.215 433.449 534.534 437.545 547.299 445.825L553 449L544 455L557 451L557 447L545 441L545 436L549 437C558.939 427.816 555.79 452.427 563 454L567 440L573 450L578 447C572.719 443.688 572.503 430.62 564.985 439.13L561 443C560.493 436.627 562.133 422.215 556 419M630 419C630.445 427.561 622.525 430.208 623 420C619.476 422.285 618.359 429.767 623.148 431.829L632 430L633 423L638 427L644 426L644 423L638 423C636.655 418.974 633.873 419.276 630 419z"><path style=fill:#fff;stroke:none d="M650.667 419.333L651.333 419.667L650.667 419.333z"><path style=fill:#000;stroke:none d="M205 424C204.381 429.243 203.763 433.968 210 435L207 432L208 424L205 424M318 442L317 445L316 443L314 457L306 459L323 462L325 462L325 464L330 461L320 458C327.133 454.317 334.362 446.664 337 439L317 455L322 437L325 439C327.239 434.299 329.902 432.866 335 433L334 438C340.973 433.457 332.196 428.388 327.004 428.42C322.416 428.448 319.529 432.247 317.904 436.166L318 442M415 442L414 446C423.081 438.795 418.597 431.675 432 438C430.226 433.295 425.492 426.109 419.435 429.889C416.567 431.679 411.809 439.667 415 442M587 438L588 442C579.831 444.836 578.802 433.132 588 435L588 430C580.281 430.027 570.841 441.769 581.213 445.952C587.158 448.35 595.839 440.499 587 438M270 453L270 451L262 440L263 446L252.608 445.123C243.902 438.84 263.139 435.798 266 436C261.57 422.327 237.145 440.568 250.533 448.958L260 449.834L270 453M460 432L458 435L456 456C455.166 459.137 454.411 461.231 458 462L457 455L470 448L470 460L481 452C481.816 464.146 491.058 459.864 499 457C502.751 464.519 512.327 462.504 516 456C504.772 456.024 504.56 455.452 507 445L502 448L498 447C493.618 457.095 485.011 461.188 485 447L474 452L475.376 437.175L460 450L460 432M599 433L593 442L603 442L600 439L599 433M281 444L278 443L275 458L279 458C280.315 453.905 283.94 440.907 289.872 441.921L297 448L294 445C295.619 434.049 283.956 435.509 281 444M334 462C335.217 465.941 341.988 471.033 344.357 464.852L341 451L346 447L353 453L352 446C348.153 446.239 340.579 445.412 338.353 449.51C335.451 454.856 346.081 463.869 334 462M303 460L305 450C308.372 450.579 310.032 450.445 311 447C304.659 447.326 291.522 458.001 303 460M402 472L402 470L396 469L399 452C406.331 453.197 406.176 460.271 404 466C412.354 463.254 408.938 445.449 400.035 449.248C390.065 453.502 388.015 475 402 472M411 455C411.004 460.868 409.788 472.503 416 475L415 463C419.97 462.986 425.236 463.445 427 458L411 455M458 463L458 465L460 465L460 463L458 463z"></svg>